<svg xmlns="http://www.w3.org/2000/svg" xmlns:xlink="http://www.w3.org/1999/xlink" version="1.1" x="0px" y="0px" width="100px" height="100px" viewBox="5.0 -10.0 100.0 135.0" enable-background="new 0 0 100 100" xml:space="preserve">
<g id="Captions">
</g>
<g id="Your_Icon">
	<g>
		<path fill="#000000" d="M93.552,22.933H6.378c-2.599,0.986-4.448,3.49-4.448,6.413v48.999c0,3.793,3.095,6.87,6.913,6.87h82.244    c3.818,0,6.913-3.077,6.913-6.87V29.346C98,26.423,96.154,23.919,93.552,22.933z M39.69,53.946    c-0.151,0.302-0.554,0.604-3.562,0.824c-1.17,0.086-2.908,0.147-4.88,0.176v13.719c0,2.202-1.796,3.979-4.013,3.979    s-4.005-1.777-4.005-3.979V54.903c-4.232-0.115-7.842-0.396-8.209-0.907l-0.101-0.345c0-1.807,10.454-18.116,12.412-18.152    c0.32-0.004,0.701,0.23,1.267,0.785C31.536,39.155,39.759,51.6,39.759,53.64L39.69,53.946z"/>
		<path fill="#000000" d="M89.604,18.873c0-3.793-2.458-6.873-5.488-6.873H58.516c-3.03,0-5.492,3.08-5.492,6.873v1.317h36.581    V18.873z"/>
	</g>
</g>
</svg>